<svg xmlns="http://www.w3.org/2000/svg" viewBox="0 0 512 512">
  <rect width="512" height="512" fill="#090909"/>
  <path fill="#FFD700" d="M344.3 296c0 41.6-32.1 75.7-72.6 78.4-2.8.2-5.7.3-8.6.3-15.6 0-30-5.1-41.6-13.7-10.7 8.6-24.3 13.7-39 13.7-34 0-61.6-27.6-61.6-61.6 0-2.3.2-4.6.5-6.8-21.7-4.5-38.1-23.7-38.1-46.8 0-26.5 21.5-48 48-48 2.2 0 4.4.2 6.5.5 5.5-28 30-49.2 59.5-49.2 23.6 0 43.9 13.5 54.3 33.3 3.8-.6 7.7-1 11.7-1 39.8 0 72 32.2 72 72 0 9.1-1.7 17.8-4.7 25.8 8.6 7.6 14.1 18.6 14.1 30.9z" transform="translate(256 256) scale(1.5) translate(-256 -256) translate(50 50)"/>
</svg>